# xmcd CD database file
#
# Track frame offsets:
#	150
#	30097
#	60527
#	78255
#	103657
#	115885
#	149185
#	174625
#	195350
#	229025
#	243080
#	266577
#
# Disc length: 3814 seconds
#
# Revision: 0
# Processed by: cddbd v1.5.2PL0 Copyright (c) Steve Scherf et al.
# Submitted via: CDex 1.70beta2
#
DISCID=970ee40c
DTITLE=Martial Solal - Just Friends
DYEAR=1900
DGENRE=Jazz
TTITLE0=Just Friends
TTITLE1=Coming Yesterday
TTITLE2=Willow Weep For Me
TTITLE3=You Stepped Out Of A Dream
TTITLE4=Hommage A Frederic Chopin
TTITLE5=Sapristi
TTITLE6=Summertime
TTITLE7=Sacrebleu
TTITLE8=I'm Getting Sentimental Over You
TTITLE9=Fausse Note
TTITLE10=I Can't Get Started
TTITLE11=Moins De 36
EXTD=
EXTT0=
EXTT1=
EXTT2=
EXTT3=
EXTT4=
EXTT5=
EXTT6=
EXTT7=
EXTT8=
EXTT9=
EXTT10=
EXTT11=
PLAYORDER=
